<svg aria-hidden="true" style="width:0;height:0;position:absolute;overflow:hidden" xmlns="http://www.w3.org/2000/svg"><defs><symbol id="icon-arrow-right-on-btn" viewBox="0 0 32 32"><path d="M8.51 3.254C8.184 3.63 8 4.14 8 4.671s.183 1.041.51 1.417l8.62 9.924-8.62 9.924c-.317.378-.493.884-.489 1.41s.187 1.029.51 1.4.76.583 1.216.587c.457.005.896-.198 1.225-.563l9.851-11.341c.326-.376.51-.886.51-1.417s-.183-1.041-.51-1.417L10.972 3.254c-.327-.376-.769-.587-1.231-.587s-.905.211-1.231.587z"/></symbol><symbol id="icon-arrow" viewBox="0 0 82 32"><path d="M81.414 17.414a2 2 0 0 0 0-2.828L68.686 1.858a2 2 0 1 0-2.828 2.828L77.172 16 65.858 27.314a2 2 0 1 0 2.828 2.828l12.728-12.728zM0 18h80v-4H0v4z"/></symbol><symbol id="icon-cursor" viewBox="0 0 32 32"><path stroke-width="1.845" d="m12.031 9.341 7.289 6.803c1.247 1.164.558 3.255-1.138 3.449l-2.745.314a3.331 3.331 0 0 0-1.851.834l-1.582 1.424c-1.287 1.158-3.338.245-3.338-1.487v-9.876c0-1.749 2.086-2.655 3.365-1.462z"/></symbol><symbol id="icon-icon-close-modal" viewBox="0 0 32 32"><path d="m17.253 16 7.369-7.369a.885.885 0 0 0-.047-1.206.893.893 0 0 0-1.207-.047l-7.369 7.369L8.63 7.369a.892.892 0 0 0-1.262 1.262L14.746 16l-7.378 7.369a.891.891 0 0 0-.05 1.304.906.906 0 0 0 .663.26.88.88 0 0 0 .641-.31L16 17.254l7.369 7.369a.886.886 0 0 0 1.207-.047.893.893 0 0 0 .047-1.207L17.254 16z"/></symbol><symbol id="icon-logo" viewBox="0 0 30 32"><path d="M15.226 17.082c1.415-3.784-1.515-5.856-3.457-7.217-.371-.278-.743-.538-1.043-.776-.537-.447-.933-1.037-1.141-1.699s-.217-1.37-.029-2.037a.394.394 0 0 0-.308-.491.407.407 0 0 0-.216.016 6.565 6.565 0 0 0-1.801 1.058c-.518.393-.937.898-1.226 1.476s-.44 1.213-.441 1.858c-.366.285-.69.618-.962.992a3.6 3.6 0 0 0-.709 2.324c-.595.538-1.038 1.22-1.286 1.977s-.292 1.566-.129 2.345a1.232 1.232 0 0 0-.106 2.06c.221.164.49.251.767.25h.026v2.152c0 .218.088.428.245.582s.369.241.591.241h.65l1.058 9.04a.83.83 0 0 0 .828.732h4.404c.206 0 .404-.075.557-.21s.251-.321.275-.522l1.058-9.04h.65c.222 0 .434-.087.591-.241s.245-.364.245-.582v-2.152h.026c.336 0 .658-.131.895-.366a1.242 1.242 0 0 0 0-1.773l-.011.004zm-9.531-6.866c.535 1.98 2.599 2.76 4.482 3.455a.41.41 0 0 0 .492-.051.403.403 0 0 0 .074-.483.401.401 0 0 0-.279-.197c-2.027-.758-3.939-1.464-4.084-3.488-.034-.556.072-1.112.308-1.619s.596-.947 1.047-1.284c.282-.232.586-.437.906-.615a4.604 4.604 0 0 0 0 .761c.043.58.204 1.146.473 1.663s.641.976 1.094 1.349c.308.26.691.527 1.114.813.976.692 2.087 1.464 2.792 2.511a3.859 3.859 0 0 1 .404 3.715h-1.641c-3.383 0-7.27-.922-8.039-3.506-.152-.532-.151-1.095.004-1.626s.457-1.009.873-1.379l-.019-.018zM8.74 22.693l1.24 1.222-1.24 1.222-1.24-1.23 1.24-1.215zm2.844 3.21-1.025 1.01-1.24-1.222 1.24-1.219 1.077 1.058-.052.373zM8.74 28.706 7.5 27.484l1.24-1.222 1.24 1.222-1.24 1.222zm-.568-3.008-1.24 1.222L5.9 25.903l-.045-.366 1.077-1.058 1.24 1.219zM6.36 27.484l-.249.245-.063-.556.312.311zm-.13 1.251.702-.692 1.363 1.354a.845.845 0 0 0 .026.081H6.316l-.085-.743zm4.322-.691.702.692-.085.732H9.108l1.444-1.424zm.817-.315-.249-.245.316-.311-.067.556zm.371-3.199-.62-.622.787-.776-.167 1.398zm-1.192-1.178-1.177-1.157h2.354l-1.177 1.157zm-3.62 0-1.177-1.157h2.354l-1.177 1.157zm4.01 7.817h-4.4c-.007-.001-.013-.004-.018-.008s-.008-.011-.008-.017l-.104-.878h4.663l-.1.878c-.001.007-.004.014-.01.018s-.012.007-.02.007h-.004zm3.405-12.751h-1.292a.406.406 0 0 0-.444.397c0 .056.012.111.035.161s.056.096.098.134a.403.403 0 0 0 .311.102h.46v2.152c-.001.007-.004.014-.01.018s-.012.007-.02.007H3.987c-.007 0-.014-.003-.02-.007s-.009-.011-.01-.018v-2.152h7.355a.404.404 0 0 0 .366-.397.393.393 0 0 0-.105-.268.413.413 0 0 0-.261-.129H3.144a.46.46 0 0 1-.501-.452.446.446 0 0 1 .15-.335.454.454 0 0 1 .351-.117h.843a.404.404 0 0 0 .366-.397.393.393 0 0 0-.105-.268.413.413 0 0 0-.261-.129h-.743a3.873 3.873 0 0 1 .81-3.185c.26.798.928 1.889 2.599 2.756 1.571.809 3.65 1.222 6.178 1.222h1.485a.46.46 0 0 1 .501.452.446.446 0 0 1-.15.335.454.454 0 0 1-.351.117h.026z"/><path d="m16.964 29.152-.292.449.006.004.287-.453zm3.149.151.535-.012-.014-.62-.611.104.09.528zm.037 1.648.136.518.409-.108-.009-.422-.535.012zm-4.133.079.12-.522-.003-.001-.117.523zm-2.04-.911.347-.408-.001-.001-.346.409zm-.737-1.673.536.003v-.003h-.536zm.256-1.172-.481-.236v.001l.481.236zm1.643-1.402.19.501.002-.001-.192-.5zm5.262-.136.534.042.035-.452-.44-.109-.129.52zm-.131 1.679-.1.526.587.111.046-.596-.534-.042zm-1.428-.687c-.804 0-1.48.086-1.973.303a1.616 1.616 0 0 0-.651.489 1.26 1.26 0 0 0-.255.774h1.071c0-.063.015-.098.038-.127a.554.554 0 0 1 .228-.155c.288-.126.784-.212 1.542-.212v-1.071zm-2.879 1.566c0 .551.247 1.006.709 1.307l.585-.897a.435.435 0 0 1-.222-.409h-1.071zm.715 1.31c.438.277 1.015.381 1.662.381v-1.071c-.559 0-.899-.095-1.089-.215l-.573.905zm1.662.382a11.1 11.1 0 0 0 1.863-.154l-.179-1.056c-.545.092-1.106.139-1.684.139v1.071zm1.238-.671.037 1.648 1.071-.024-.037-1.648-1.071.024zm.435 1.118a7.964 7.964 0 0 1-2.029.244v1.071c.821 0 1.589-.092 2.302-.279l-.273-1.036zm-2.029.244c-.757 0-1.369-.059-1.847-.169l-.24 1.044c.582.134 1.281.197 2.087.197v-1.071zm-1.85-.17c-.511-.114-.88-.236-1.127-.356l-.47.963c.354.173.814.316 1.363.439l.234-1.045zm-1.126-.356a3.258 3.258 0 0 1-.684-.44l-.693.817c.267.227.571.421.907.585l.47-.963zm-.685-.441c-.364-.308-.55-.709-.548-1.262l-1.071-.005c-.004.842.301 1.556.927 2.086l.691-.818zm-.547-1.264c0-.36.071-.669.202-.936l-.962-.471c-.211.43-.311.903-.311 1.407h1.071zm.201-.936c.244-.495.674-.88 1.352-1.137l-.38-1.002c-.884.336-1.549.885-1.933 1.666l.961.473zm1.354-1.138c.713-.274 1.508-.414 2.392-.414v-1.071c-.999 0-1.926.159-2.776.485l.384 1zm2.392-.414c.902 0 1.751.1 2.549.298l.258-1.04a11.605 11.605 0 0 0-2.807-.33v1.071zm2.144-.263-.131 1.679 1.068.083.131-1.679-1.068-.083zm.503 1.194a8.256 8.256 0 0 0-1.528-.161v1.071c.377 0 .818.046 1.328.142l.2-1.052zm5.226.856-.003.536.544.003-.006-.544-.536.006zm-.23-.696-.364.393.005.004.36-.397zm-1.334.052.371.386.004-.004-.375-.383zm-.324.633-.529-.087-.102.619.627.003.003-.536zm3.938 2.856.324.427.193-.146.018-.241-.534-.04zm-1.156.429-.115-.523-.003.001.118.522zm-4.017-.146-.183.504.004.002.178-.505zm-.915-.487-.332.42.003.003.003.003.326-.425zm-.612-.769-.48.237.001.002.479-.24zm.627-3.248.356.4-.356-.4zm4.896-.581.214-.491-.005-.002-.209.493zm1.23 1.13-.482.234.001.003.48-.237zm.209.937.534.039.001-.019v-.019h-.536zm-.063.863-.003.536.501.002.036-.499-.534-.039zm-4.242-.021.003-.536-.699-.003.178.676.518-.137zm.607.748-.264.466.002.001.261-.468zm3.253-.183v-.536h-.107l-.099.041.206.494zm.283 0 .534.04.043-.576h-.577v.536zm-1.615-1.523c-.004-.387-.093-.803-.406-1.087l-.72.794c-.006-.006.006.001.021.047a.87.87 0 0 1 .033.257l1.071-.011zm-.401-1.082c-.281-.261-.65-.347-1.013-.347v1.071c.209 0 .272.05.284.061l.729-.785zm-1.013-.348c-.399 0-.77.125-1.06.409l.75.765c.058-.057.144-.103.31-.103v-1.071zm-1.056.406a1.63 1.63 0 0 0-.482.932l1.057.174a.558.558 0 0 1 .167-.333l-.742-.773zm.044 1.555 1.888.011.006-1.071-1.888-.011-.006 1.071zm3.618 1.893c-.117.089-.404.213-.948.333l.23 1.046c.565-.124 1.049-.286 1.364-.525l-.647-.854zm-.951.334a6.805 6.805 0 0 1-1.498.175v1.071c.566 0 1.145-.068 1.735-.201l-.237-1.045zm-1.498.175c-.505 0-.92-.024-1.252-.068l-.143 1.062c.394.053.86.078 1.395.078v-1.071zm-1.252-.069a4.855 4.855 0 0 1-.971-.236l-.357 1.01c.389.137.784.233 1.184.287l.143-1.062zm-.966-.234a2.862 2.862 0 0 1-.772-.408l-.652.85c.305.234.66.421 1.059.565l.365-1.007zm-.766-.403a1.708 1.708 0 0 1-.465-.588l-.958.479c.189.377.44.697.759.949l.665-.84zm-.464-.586c-.113-.228-.18-.521-.18-.898h-1.071c0 .502.09.966.291 1.372l.96-.475zm-.18-.898c0-.377.068-.71.196-1.006l-.983-.427a3.57 3.57 0 0 0-.285 1.432h1.071zm.196-1.005c.135-.311.3-.541.487-.708l-.712-.8a3.056 3.056 0 0 0-.758 1.081l.983.427zm.488-.708c.576-.513 1.454-.811 2.719-.811v-1.071c-1.42 0-2.592.334-3.432 1.083l.713.8zm2.719-.811c.568 0 1.103.108 1.611.324l.418-.986a5.144 5.144 0 0 0-2.029-.409v1.071zm1.606.321c.474.207.78.5.962.873l.963-.468c-.307-.631-.82-1.091-1.497-1.387l-.428.982zm.963.876c.1.203.154.433.154.699h1.071c0-.417-.086-.811-.265-1.173l-.96.474zm.156.661-.063.863 1.068.078.063-.863-1.068-.078zm.474.366-4.242-.021-.005 1.071 4.242.021.005-1.071zm-4.763.651c.125.475.431.835.861 1.078l.527-.933c-.212-.12-.31-.258-.352-.418l-1.036.273zm.863 1.079c.434.243.978.34 1.585.34v-1.071c-.509 0-.848-.084-1.062-.204l-.523.935zm1.585.34c.651 0 1.367-.176 2.136-.496l-.412-.989c-.689.287-1.26.414-1.724.414v1.071zm1.93-.455h.282v-1.071h-.282v1.071zm-.251-.575-.099 1.329 1.068.08.099-1.329-1.068-.08z"/></symbol><symbol id="icon-menu-close" viewBox="0 0 32 32"><path d="M23.884 6.706 16 14.59 8.116 6.706a.995.995 0 0 0-1.38.031 1 1 0 0 0-.031 1.38l7.88 7.884-7.882 7.882a1.002 1.002 0 0 0-.018 1.427.998.998 0 0 0 1.427-.015l7.886-7.882 7.884 7.884a1 1 0 0 0 1.38-.03 1 1 0 0 0 .03-1.38l-7.884-7.884 7.884-7.886a1.002 1.002 0 0 0 .018-1.427.998.998 0 0 0-1.427.015v.002z"/></symbol><symbol id="icon-menu-open" viewBox="0 0 32 32"><path d="M26.733 14.667H5.266c-.7 0-1.267.567-1.267 1.267v.133c0 .7.567 1.267 1.267 1.267h21.467c.7 0 1.267-.567 1.267-1.267v-.133c0-.7-.567-1.267-1.267-1.267zM26.733 21.333H5.266c-.7 0-1.267.567-1.267 1.267v.133c0 .7.567 1.267 1.267 1.267h21.467c.7 0 1.267-.567 1.267-1.267V22.6c0-.7-.567-1.267-1.267-1.267zM26.733 8H5.266c-.7 0-1.267.567-1.267 1.267V9.4c0 .7.567 1.267 1.267 1.267h21.467c.7 0 1.267-.567 1.267-1.267v-.133C28 8.567 27.433 8 26.733 8z"/></symbol></defs></svg>